# CAD Exchanger 3.5.2 (cadexchanger.com)
# Object Count: 1
mtllib LetterMOBJ.mtl
g LetterM
v -294.877646 -289.678028 -9.950000
v -352.246436 -289.678028 -9.950000
v -294.877646 -289.678028 10.050000
v -352.246436 -289.678028 10.050000
v -234.201565 168.254664 -9.950000
v -234.201565 168.254664 10.050000
v -4.090387 -289.678028 -9.950000
v -4.090387 -289.678028 10.050000
v 8.757169 -289.678028 -9.950000
v 8.757169 -289.678028 10.050000
v 237.977923 167.237036 -9.950000
v 237.977923 167.237036 10.050000
v 298.781208 -289.678028 -9.950000
v 298.781208 -289.678028 10.050000
v 356.022794 -289.678028 -9.950000
v 356.022794 -289.678028 10.050000
v 271.686857 345.321972 -9.950000
v 271.686857 345.321972 10.050000
v 263.418628 345.321972 -9.950000
v 263.418628 345.321972 10.050000
v 1.888179 -175.703669 -9.950000
v 1.888179 -175.703669 10.050000
v -260.278287 345.321972 -9.950000
v -260.278287 345.321972 10.050000
v -268.419313 345.321972 -9.950000
v -268.419313 345.321972 10.050000
vn 0.000000 -1.000000 0.000000
vn 0.000000 -1.000000 0.000000
vn 0.000000 -1.000000 0.000000
vn 0.000000 -1.000000 0.000000
vn 0.991336 -0.131352 0.000000
vn 0.991336 -0.131352 0.000000
vn 0.991336 -0.131352 0.000000
vn 0.991336 -0.131352 0.000000
vn -0.893532 -0.449000 0.000000
vn -0.893532 -0.449000 0.000000
vn -0.893532 -0.449000 0.000000
vn -0.893532 -0.449000 0.000000
vn 0.000000 -1.000000 0.000000
vn 0.000000 -1.000000 0.000000
vn 0.000000 -1.000000 0.000000
vn 0.000000 -1.000000 0.000000
vn 0.893829 -0.448408 0.000000
vn 0.893829 -0.448408 0.000000
vn 0.893829 -0.448408 0.000000
vn 0.893829 -0.448408 0.000000
vn -0.991262 -0.131911 0.000000
vn -0.991262 -0.131911 0.000000
vn -0.991262 -0.131911 0.000000
vn -0.991262 -0.131911 0.000000
vn 0.000000 -1.000000 0.000000
vn 0.000000 -1.000000 0.000000
vn 0.000000 -1.000000 0.000000
vn 0.000000 -1.000000 0.000000
vn 0.991295 0.131656 -0.000000
vn 0.991295 0.131656 -0.000000
vn 0.991295 0.131656 -0.000000
vn 0.991295 0.131656 -0.000000
vn 0.000000 1.000000 0.000000
vn 0.000000 1.000000 0.000000
vn 0.000000 1.000000 0.000000
vn 0.000000 1.000000 0.000000
vn -0.893728 0.448610 0.000000
vn -0.893728 0.448610 0.000000
vn -0.893728 0.448610 0.000000
vn -0.893728 0.448610 0.000000
vn 0.893290 0.449480 -0.000000
vn 0.893290 0.449480 -0.000000
vn 0.893290 0.449480 -0.000000
vn 0.893290 0.449480 -0.000000
vn 0.000000 1.000000 0.000000
vn 0.000000 1.000000 0.000000
vn 0.000000 1.000000 0.000000
vn 0.000000 1.000000 0.000000
vn -0.991399 0.130876 0.000000
vn -0.991399 0.130876 0.000000
vn -0.991399 0.130876 0.000000
vn -0.991399 0.130876 0.000000
vn -0.000000 -0.000000 1.000000
vn -0.000000 -0.000000 1.000000
vn -0.000000 -0.000000 1.000000
vn -0.000000 -0.000000 1.000000
vn -0.000000 -0.000000 1.000000
vn -0.000000 -0.000000 1.000000
vn -0.000000 -0.000000 1.000000
vn -0.000000 -0.000000 1.000000
vn -0.000000 -0.000000 1.000000
vn -0.000000 -0.000000 1.000000
vn -0.000000 -0.000000 1.000000
vn -0.000000 -0.000000 1.000000
vn -0.000000 -0.000000 1.000000
vn 0.000000 0.000000 -1.000000
vn 0.000000 0.000000 -1.000000
vn 0.000000 0.000000 -1.000000
vn 0.000000 0.000000 -1.000000
vn 0.000000 0.000000 -1.000000
vn 0.000000 0.000000 -1.000000
vn 0.000000 0.000000 -1.000000
vn 0.000000 0.000000 -1.000000
vn 0.000000 0.000000 -1.000000
vn 0.000000 0.000000 -1.000000
vn 0.000000 0.000000 -1.000000
vn 0.000000 0.000000 -1.000000
vn 0.000000 0.000000 -1.000000
usemtl Material_1
f 3//3 2//1 1//2
f 4//4 2//1 3//3
f 6//7 1//5 5//6
f 3//8 1//5 6//7
f 8//11 5//9 7//10
f 6//12 5//9 8//11
f 10//15 7//13 9//14
f 8//16 7//13 10//15
f 12//19 9//17 11//18
f 10//20 9//17 12//19
f 14//23 11//21 13//22
f 12//24 11//21 14//23
f 16//27 13//25 15//26
f 14//28 13//25 16//27
f 18//31 15//29 17//30
f 16//32 15//29 18//31
f 20//35 17//33 19//34
f 18//36 17//33 20//35
f 22//39 19//37 21//38
f 20//40 19//37 22//39
f 24//43 21//41 23//42
f 22//44 21//41 24//43
f 26//47 23//45 25//46
f 24//48 23//45 26//47
f 4//51 25//49 2//50
f 26//52 25//49 4//51
f 6//64 26//54 4//53
f 8//63 10//62 22//56
f 12//61 18//58 20//57
f 12//61 16//59 18//58
f 12//61 20//57 22//56
f 12//61 14//60 16//59
f 12//61 22//56 10//62
f 6//64 24//55 26//54
f 6//64 22//56 24//55
f 8//63 22//56 6//64
f 3//65 6//64 4//53
f 5//78 1//66 2//67
f 5//78 2//67 25//68
f 7//77 21//70 9//76
f 11//75 19//71 17//72
f 11//75 17//72 15//73
f 11//75 21//70 19//71
f 11//75 15//73 13//74
f 11//75 9//76 21//70
f 5//78 25//68 23//69
f 5//78 23//69 21//70
f 7//77 5//78 21//70
