# CAD Exchanger 3.5.2 (cadexchanger.com)
# Object Count: 1
mtllib PausePlayOBJ.mtl
g PausePlay
v 575.000000 550.000000 10.000000
v 575.000000 200.000000 10.000000
v 675.000000 550.000000 10.000000
v 675.000000 200.000000 10.000000
v 0.000000 750.000000 10.000000
v 0.000000 0.000000 10.000000
v 750.000000 0.000000 10.000000
v 750.000000 750.000000 10.000000
v 71.891109 200.000000 10.000000
v 375.000000 375.000000 10.000000
v 71.891109 550.000000 10.000000
v 400.000000 550.000000 10.000000
v 400.000000 200.000000 10.000000
v 500.000000 550.000000 10.000000
v 500.000000 200.000000 10.000000
v 0.000000 750.000000 0.000000
v 0.000000 0.000000 0.000000
v 750.000000 0.000000 0.000000
v 750.000000 750.000000 0.000000
v 375.000000 375.000000 60.000000
v 71.891109 200.000000 60.000000
v 71.891109 550.000000 60.000000
v 575.000000 200.000000 60.000000
v 575.000000 550.000000 60.000000
v 675.000000 200.000000 60.000000
v 675.000000 550.000000 60.000000
v 400.000000 200.000000 60.000000
v 400.000000 550.000000 60.000000
v 500.000000 200.000000 60.000000
v 500.000000 550.000000 60.000000
vn -0.000000 -0.000000 1.000000
vn -0.000000 -0.000000 1.000000
vn -0.000000 -0.000000 1.000000
vn -0.000000 -0.000000 1.000000
vn -0.000000 -0.000000 1.000000
vn -0.000000 -0.000000 1.000000
vn -0.000000 -0.000000 1.000000
vn -0.000000 -0.000000 1.000000
vn -0.000000 -0.000000 1.000000
vn -0.000000 -0.000000 1.000000
vn -0.000000 -0.000000 1.000000
vn -0.000000 -0.000000 1.000000
vn -0.000000 -0.000000 1.000000
vn -0.000000 -0.000000 1.000000
vn -0.000000 -0.000000 1.000000
vn -1.000000 -0.000000 -0.000000
vn -1.000000 -0.000000 -0.000000
vn -1.000000 -0.000000 -0.000000
vn -1.000000 -0.000000 -0.000000
vn -0.000000 -1.000000 -0.000000
vn -0.000000 -1.000000 -0.000000
vn -0.000000 -1.000000 -0.000000
vn -0.000000 -1.000000 -0.000000
vn 1.000000 -0.000000 -0.000000
vn 1.000000 -0.000000 -0.000000
vn 1.000000 -0.000000 -0.000000
vn 1.000000 -0.000000 -0.000000
vn -0.000000 1.000000 -0.000000
vn -0.000000 1.000000 -0.000000
vn -0.000000 1.000000 -0.000000
vn -0.000000 1.000000 -0.000000
vn 0.000000 0.000000 -1.000000
vn 0.000000 0.000000 -1.000000
vn 0.000000 0.000000 -1.000000
vn 0.000000 0.000000 -1.000000
vn 0.500000 -0.866025 -0.000000
vn 0.500000 -0.866025 -0.000000
vn 0.500000 -0.866025 -0.000000
vn 0.500000 -0.866025 -0.000000
vn 0.500000 0.866025 -0.000000
vn 0.500000 0.866025 -0.000000
vn 0.500000 0.866025 -0.000000
vn 0.500000 0.866025 -0.000000
vn -1.000000 0.000000 -0.000000
vn -1.000000 0.000000 -0.000000
vn -1.000000 0.000000 -0.000000
vn -1.000000 0.000000 -0.000000
vn 0.000000 -0.000000 1.000000
vn 0.000000 -0.000000 1.000000
vn 0.000000 -0.000000 1.000000
vn -1.000000 -0.000000 0.000000
vn -1.000000 -0.000000 0.000000
vn -1.000000 -0.000000 0.000000
vn -1.000000 -0.000000 0.000000
vn -0.000000 -1.000000 -0.000000
vn -0.000000 -1.000000 -0.000000
vn -0.000000 -1.000000 -0.000000
vn -0.000000 -1.000000 -0.000000
vn 1.000000 -0.000000 -0.000000
vn 1.000000 -0.000000 -0.000000
vn 1.000000 -0.000000 -0.000000
vn 1.000000 -0.000000 -0.000000
vn 0.000000 1.000000 -0.000000
vn 0.000000 1.000000 -0.000000
vn 0.000000 1.000000 -0.000000
vn 0.000000 1.000000 -0.000000
vn -0.000000 0.000000 1.000000
vn -0.000000 0.000000 1.000000
vn -0.000000 0.000000 1.000000
vn -0.000000 0.000000 1.000000
vn -1.000000 -0.000000 0.000000
vn -1.000000 -0.000000 0.000000
vn -1.000000 -0.000000 0.000000
vn -1.000000 -0.000000 0.000000
vn -0.000000 -1.000000 -0.000000
vn -0.000000 -1.000000 -0.000000
vn -0.000000 -1.000000 -0.000000
vn -0.000000 -1.000000 -0.000000
vn 1.000000 -0.000000 -0.000000
vn 1.000000 -0.000000 -0.000000
vn 1.000000 -0.000000 -0.000000
vn 1.000000 -0.000000 -0.000000
vn -0.000000 1.000000 -0.000000
vn -0.000000 1.000000 -0.000000
vn -0.000000 1.000000 -0.000000
vn -0.000000 1.000000 -0.000000
vn -0.000000 0.000000 1.000000
vn -0.000000 0.000000 1.000000
vn -0.000000 0.000000 1.000000
vn -0.000000 0.000000 1.000000
usemtl Material_1
f 4//2 7//7 8//6
f 4//2 2//1 7//7
f 12//15 5//5 11//10
f 5//5 12//15 8//6
f 8//6 3//3 4//2
f 8//6 1//4 3//3
f 15//13 7//7 2//1
f 11//10 5//5 6//8
f 12//15 11//10 10//9
f 13//12 6//8 7//7
f 9//11 11//10 6//8
f 13//12 9//11 6//8
f 13//12 10//9 9//11
f 15//13 13//12 7//7
f 14//14 1//4 8//6
f 15//13 2//1 1//4
f 15//13 1//4 14//14
f 12//15 14//14 8//6
f 12//15 10//9 13//12
f 5//17 16//16 6//18
f 17//19 6//18 16//16
f 7//22 6//21 17//20
f 18//23 7//22 17//20
f 8//26 7//25 18//24
f 19//27 8//26 18//24
f 8//29 19//28 5//30
f 16//31 5//30 19//28
f 19//34 17//32 16//33
f 18//35 17//32 19//34
f 20//38 21//37 9//36
f 10//39 20//38 9//36
f 22//42 20//41 10//40
f 11//43 22//42 10//40
f 21//46 22//45 11//44
f 9//47 21//46 11//44
f 22//50 21//48 20//49
f 24//52 1//51 23//53
f 2//54 23//53 1//51
f 25//57 23//56 2//55
f 4//58 25//57 2//55
f 26//61 25//60 4//59
f 3//62 26//61 4//59
f 24//65 26//64 3//63
f 1//66 24//65 3//63
f 25//69 26//70 24//67
f 25//69 24//67 23//68
f 27//73 28//72 12//71
f 13//74 27//73 12//71
f 29//77 27//76 13//75
f 15//78 29//77 13//75
f 30//81 29//80 15//79
f 14//82 30//81 15//79
f 30//84 14//83 28//85
f 12//86 28//85 14//83
f 29//89 30//90 28//87
f 29//89 28//87 27//88
